<svg xmlns="http://www.w3.org/2000/svg" width="16" height="16">
    <path style="fill:#dfdfdf" d="M8 1c.554 0 1 .446 1 1v5c0 .554-.446 1-1 1s-1-.446-1-1V2c0-.554.446-1 1-1z"/>
    <path style="fill:#dfdfdf" d="M11 3a1 1 0 0 0-1 1c0 .284.102.577.329.748C11.358 5.525 11.998 6.711 12 8a4 4 0 0 1-8 0c.002-1.29.644-2.475 1.672-3.253.226-.171.327-.464.328-.747a1 1 0 0 0-1-1c-.285 0-.528.151-.746.334C2.86 4.5 2.006 6.184 2 8a6 6 0 1 0 12 0c-.004-1.832-.863-3.54-2.286-4.7-.21-.172-.447-.3-.714-.3z"/>
</svg>
