<svg xmlns="http://www.w3.org/2000/svg" width="64" height="64" version="1">
    <path style="opacity:.2" d="M22.27 9.441 18.477 14H9.6C6.52 14 4 16.456 4 19.512v32.932C4 55.5 6.52 58 9.6 58h44.8c3.08 0 5.6-2.5 5.6-5.556V19.512c0-3.056-2.52-5.497-5.6-5.512h-8.876l-3.846-4.614C40.4 8 40.4 8 39 8H25c-1.4 0-1.4 0-2.73 1.441z"/>
    <path style="fill:#4f4f4f" d="M22.27 8.441 18.477 13H9.6C6.52 13 4 15.456 4 18.512v32.932C4 54.5 6.52 57 9.6 57h44.8c3.08 0 5.6-2.5 5.6-5.556V18.512c0-3.056-2.52-5.497-5.6-5.512h-8.876l-3.846-4.614C40.4 7 40.4 7 39 7H25c-1.4 0-1.4 0-2.73 1.441z"/>
    <path style="opacity:.2" d="M22.27 8.441 18.477 13H9.6C6.52 13 4 15.456 4 18.512V21h56v-2.488c0-3.056-2.52-5.497-5.6-5.512h-8.876l-3.846-4.614C40.4 7 40.4 7 39 7H25c-1.4 0-1.4 0-2.73 1.441z"/>
    <circle style="opacity:.1" cx="55" cy="19" r="3"/>
    <circle style="fill:#fff" cx="55" cy="18" r="3"/>
    <circle style="fill:#2f2f2f" cx="32" cy="-35" r="18" transform="scale(1 -1)"/>
    <circle style="opacity:.2" cx="32" cy="-36" r="14" transform="scale(1 -1)"/>
    <circle style="fill:#00b1c4" cx="32" cy="-35" r="14" transform="scale(1 -1)"/>
    <circle style="opacity:.2" cx="32" cy="36" r="8"/>
    <circle style="fill:#70f4ff" cx="32" cy="35" r="8"/>
    <path style="opacity:.1;fill:#fff" d="M25 7c-1.4 0-1.401 0-2.73 1.441L18.477 13H9.602C6.522 13 4 15.456 4 18.512v1C4 16.456 6.522 14 9.602 14h8.875l3.793-4.559C23.599 8 23.6 8 25 8h14c1.4 0 1.402.001 2.68 1.387L45.523 14h8.875c3.08.015 5.602 2.456 5.602 5.512v-1c0-3.056-2.522-5.497-5.602-5.512h-8.875L41.68 8.387C40.402 7 40.4 7 39 7H25z"/>
    <path style="opacity:.2;fill:#fff" d="M31.879 27A8 8 0 0 0 24 35a8 8 0 0 0 .016.506A8 8 0 0 1 31.879 28 8 8 0 0 1 32 28a8 8 0 0 1 7.984 7.498A8 8 0 0 0 40 35a8 8 0 0 0-8-8 8 8 0 0 0-.121 0z"/>
</svg>
