<svg xmlns="http://www.w3.org/2000/svg" width="64" height="64" version="1">
    <path style="fill:#4f4f4f" d="M32.151 12c-10.553 0-20.053 3.75-27.932 9.567L32.15 52l27.717-30.543C52.021 15.706 42.626 12 32.151 12z"/>
    <path style="fill:#797979" d="M32.044 20a37.619 37.619 0 0 0-22.478 7.412L32.162 52l22.36-24.588A37.619 37.619 0 0 0 32.044 20z"/>
    <path style="fill:#e4e4e4" d="M32.044 28a28.212 28.212 0 0 0-16.857 5.559L32.132 52l16.77-18.44a28.211 28.211 0 0 0-16.858-5.558z"/>
    <path style="opacity:.1;fill:#fff" d="M32.014 12.02c-10.534 0-20.018 3.744-27.883 9.548l.555.606c7.755-5.575 17.038-9.154 27.328-9.154h.002c10.21 0 19.392 3.537 27.115 9.05l.553-.61c-7.836-5.74-17.216-9.44-27.668-9.44h-.002z"/>
    <path style="opacity:.1;fill:#fff" d="M32.047 19.992a37.619 37.619 0 0 0-22.48 7.414l.556.604a37.614 37.614 0 0 1 21.924-7.018l.002.002a37.605 37.605 0 0 1 21.924 7.02l.552-.608a37.612 37.612 0 0 0-22.476-7.412l-.002-.002z"/>
    <path style="opacity:.1;fill:#fff" d="M32.047 27.992a28.21 28.21 0 0 0-16.86 5.563l.565.613a28.195 28.195 0 0 1 16.295-5.176c6.062 0 11.69 1.929 16.293 5.18l.56-.617a28.195 28.195 0 0 0-16.853-5.563z"/>
    <path style="opacity:.2" d="M59.307 22.074 32.154 52 4.781 22.18c-.189.127-.38.251-.562.386L32.154 53l27.713-30.543c-.182-.133-.372-.257-.56-.383z"/>
</svg>
