<svg xmlns="http://www.w3.org/2000/svg" width="48" height="48">
    <path style="opacity:.2" d="M23.922 1039.363c-.494.013-.94.142-1.188.344l-5.27 4.31-5.269 4.31c-.561.46.142 1.035 1.266 1.035l10.539-2 10.539 2c1.124 0 1.827-.575 1.265-1.035l-5.269-4.31-5.268-4.31c-.275-.225-.795-.358-1.345-.344z" transform="translate(0 -1004.362)"/>
    <path style="opacity:.2" d="M23.87 1019.364c-.823.025-1.568.284-1.98.689l-8.784 8.619-8.78 8.62c-.937.92.235 2.07 2.11 2.07l17.564-6 17.564 6c1.875 0 3.047-1.15 2.11-2.07l-8.782-8.62-8.78-8.62c-.46-.45-1.326-.716-2.242-.688z" transform="translate(0 -1004.362)"/>
    <path style="fill:#357fbc" d="M23.87 1018.364c-.823.025-1.568.284-1.98.689l-8.784 8.619-8.78 8.62c-.937.92.235 2.07 2.11 2.07l17.564-6 17.564 6c1.875 0 3.047-1.15 2.11-2.07l-8.782-8.62-8.78-8.62c-.46-.45-1.326-.716-2.242-.688z" transform="translate(0 -1004.362)"/>
    <path style="opacity:.1;fill:#fff" d="M23.87 14.002a2.437 1.38 0 0 0-1.98.687l-8.785 8.622-8.779 8.619a2.437 1.38 0 0 0-.158 1.191 2.437 1.38 0 0 1 .158-.191l8.78-8.62 8.785-8.62a2.437 1.38 0 0 1 1.978-.688 2.437 1.38 0 0 1 2.242.687l8.782 8.622 8.78 8.619a2.437 1.38 0 0 1 .161.19 2.437 1.38 0 0 0-.16-1.19l-8.781-8.62-8.782-8.62a2.437 1.38 0 0 0-2.242-.688z"/>
    <path style="fill:#357fbc" d="M23.922 1038.363c-.494.013-.94.142-1.188.344l-5.27 4.31-5.269 4.31c-.561.46.142 1.035 1.266 1.035l10.539-2 10.539 2c1.124 0 1.827-.575 1.265-1.035l-5.269-4.31-5.268-4.31c-.275-.225-.795-.358-1.345-.344z" transform="translate(0 -1004.362)"/>
    <path style="opacity:.1;fill:#fff" d="M23.922 34.002c-.494.013-.94.142-1.188.344l-5.271 4.308-5.268 4.31c-.349.286-.21.616.215.825l5.053-4.135 5.271-4.308c.248-.202.694-.331 1.188-.344.55-.014 1.07.119 1.346.344l5.267 4.308 5.055 4.135c.424-.21.564-.539.215-.824l-5.27-4.31-5.267-4.31c-.276-.224-.796-.357-1.346-.343z"/>
    <path style="opacity:.2" d="M20 1013.362s1-4 4-4 4 4 4 4v29c0 2-3 4-4 4s-4-2-4-4z" transform="translate(0 -1004.362)"/>
    <path style="fill:#84b5dc" d="M20 1012.362s1-4 4-4 4 4 4 4v29c0 2-3 4-4 4s-4-2-4-4z" transform="translate(0 -1004.362)"/>
    <path style="opacity:.1;fill:#fff" d="M24 4c-3 0-4 4-4 4v1s1-4 4-4 4 4 4 4V8s-1-4-4-4z"/>
</svg>
