<svg xmlns="http://www.w3.org/2000/svg" width="48" height="48" version="1">
    <rect style="opacity:.2" width="32" height="36" x="8" y="9" rx="2" ry="2"/>
    <rect style="fill:#4f4f4f" width="32" height="36" x="8" y="8" rx="2" ry="2"/>
    <path style="fill:#8e8e8e" d="M14 4h20v4H14z"/>
    <path style="opacity:.2" d="M11 13v8h26v-8zm0 10v8h26v-8zm0 10v8h26v-8z"/>
    <path style="fill:#c0f957" d="M11 12v8h26v-8zm0 10v8h26v-8zm0 10v8h26v-8z"/>
    <path style="opacity:.2;fill:#fff" d="M14 4v1h20V4H14z"/>
    <path style="fill:#fff;opacity:.2" d="M11 12v1h26v-1H11zm0 10v1h26v-1H11zm0 10v1h26v-1H11z"/>
    <path style="opacity:.2" d="M35.999 27A9.978 9.978 0 0 0 26 37c0 5.54 4.46 10 10 10 5.539 0 9.998-4.46 9.998-10S41.54 27 36 27z"/>
    <path style="fill:#fecd38" d="M35.999 26A9.978 9.978 0 0 0 26 36c0 5.54 4.46 10 10 10 5.539 0 9.998-4.46 9.998-10S41.54 26 36 26z"/>
    <path style="fill:#3f3f3f" d="M35.999 30v4h4l-5 8v-4h-4z"/>
</svg>
