<svg xmlns="http://www.w3.org/2000/svg" width="48" height="48" version="1">
    <rect fill="#324090" width="40" height="28" x="-44" y="-38" rx="14" ry="14" transform="matrix(0 -1 -1 0 0 0)"/>
    <path fill="none" stroke="#000" stroke-linecap="square" stroke-width="2" opacity=".2" d="m17 19 14 13-7 7V12l7 7-14 13"/>
    <path fill="none" stroke="#fff" stroke-linecap="square" stroke-width="2" style="stroke:#fff" d="m17 18 14 13-7 7V11l7 7-14 13"/>
    <path fill="#fff" opacity=".1" d="M24 4c-7.756 0-14 6.244-14 14v1c0-7.756 6.244-14 14-14s14 6.244 14 14v-1c0-7.756-6.244-14-14-14z"/>
    <path opacity=".2" d="M10 30v1c0 7.756 6.244 14 14 14s14-6.244 14-14v-1c0 7.756-6.244 14-14 14s-14-6.244-14-14z"/>
    <circle style="fill:#db3c30" cx="37" cy="36" r="10"/>
    <path style="opacity:.2" d="M46.979 36.414A10 10 0 0 1 37 46a10 10 0 0 1-9.979-9.414A10 10 0 0 0 27 37a10 10 0 0 0 10 10 10 10 0 0 0 10-10 10 10 0 0 0-.021-.586z"/>
    <path style="fill:#fff" transform="rotate(-45)" d="M-5.48 50.8h12v2h-12z"/>
    <path style="fill:#fff" transform="rotate(-135)" d="M-57.8-.48h12v2h-12z"/>
</svg>
