<svg xmlns="http://www.w3.org/2000/svg" width="48" height="48" version="1">
    <rect fill="#30a3db" width="40" height="40" x="-44" y="-44" rx="20" ry="20" transform="matrix(0 -1 -1 0 0 0)"/>
    <path class="error" d="M22 38h4V19.992h-4zm0-22.008h4V12h-4z" opacity=".2"/>
    <path fill="#fff" class="error" d="M22 36.99h4V18.982h-4zm0-22.008h4V10.99h-4z"/>
    <path fill="#fff" opacity=".2" d="M24 4C12.92 4 4 12.92 4 24c0 .168.008.333.012.5C4.276 13.654 13.088 5 24 5s19.724 8.654 19.988 19.5c.004-.167.011-.332.011-.5 0-11.08-8.92-20-20-20z"/>
    <path opacity=".2" d="M4.012 24.5c-.004.167-.012.332-.012.5 0 11.08 8.92 20 20 20s20-8.92 20-20c0-.168-.008-.333-.012-.5C43.724 35.346 34.912 44 24 44S4.276 35.346 4.012 24.5z"/>
</svg>
