<svg xmlns="http://www.w3.org/2000/svg" width="48" height="48" version="1">
    <path fill="#5d5d5d" d="M24.082 9.002c-7.913 0-15.037 2.812-20.945 7.172l20.945 22.82 20.781-22.901c-5.885-4.312-12.929-7.09-20.781-7.09z"/>
    <path opacity=".2" d="M24 14.99a28.199 28.199 0 0 0-16.853 5.559l16.941 18.44 16.765-18.44a28.264 28.264 0 0 0-16.86-5.56z"/>
    <path fill="#848484" d="M24 14.994a28.199 28.199 0 0 0-16.853 5.559l16.941 18.44 16.765-18.441A28.2 28.2 0 0 0 24 14.994z"/>
    <path opacity=".2" d="M24 20.99a21.15 21.15 0 0 0-12.64 4.17l12.706 13.83L36.64 25.16A21.149 21.149 0 0 0 24 20.99z"/>
    <path fill="#e4e4e4" d="M24 20.994a21.15 21.15 0 0 0-12.64 4.17l12.706 13.83 12.574-13.83A21.146 21.146 0 0 0 24 20.993z"/>
    <path fill="#fff" opacity=".1" d="M24.082 9.002c-7.913 0-15.037 2.812-20.945 7.172l.563.613c5.797-4.13 12.713-6.785 20.383-6.785 7.609 0 14.449 2.623 20.22 6.707l.56-.617c-5.886-4.31-12.93-7.09-20.782-7.09z"/>
    <path fill="#fff" opacity=".1" d="M24.001 14.993a28.203 28.203 0 0 0-16.854 5.56l.564.614a28.183 28.183 0 0 1 16.29-5.174c6.06 0 11.688 1.928 16.29 5.178l.561-.618a28.188 28.188 0 0 0-16.85-5.561z"/>
    <path fill="#fff" opacity=".1" d="M24.001 20.993a21.154 21.154 0 0 0-12.641 4.17l.564.613A21.136 21.136 0 0 1 24 21.993a21.13 21.13 0 0 1 12.078 3.787l.561-.617a21.139 21.139 0 0 0-12.638-4.17z"/>
    <path opacity=".2" d="M44.307 16.717 24.082 39.004 3.697 16.795c-.184.131-.378.25-.56.385L24.082 40l20.78-22.902c-.18-.133-.372-.25-.556-.38z"/>
</svg>
