<svg xmlns="http://www.w3.org/2000/svg" width="48" height="48" version="1">
    <path opacity=".2" d="M8 41v2c0 1.108.892 2 2 2h28c1.108 0 2-.892 2-2v-2c0 1.108-.892 2-2 2H10c-1.108 0-2-.892-2-2z"/>
    <path fill="#e4e4e4" d="M40 42V10c0-1.108-.892-2-2-2H10c-1.108 0-2 .892-2 2v32c0 1.108.892 2 2 2h28c1.108 0 2-.892 2-2zM14 4h20v4H14z"/>
    <path fill="#fff" opacity=".2" d="M11 32h26v8H11z"/>
    <path fill="#d23a2e" d="M11 31h26v8H11z"/>
    <path fill="#fff" opacity=".2" d="M11 22h26v8H11z"/>
    <path fill="#5d5d5d" d="M11 21h26v8H11z"/>
    <path fill="#fff" opacity=".2" d="M11 12h26v8H11z"/>
    <path fill="#5d5d5d" d="M11 11h26v8H11z"/>
    <path fill="#fff" opacity=".2" d="M14 4v1h20V4H14z"/>
    <path fill="#fff" opacity=".1" d="M10 8c-1.108 0-2 .892-2 2v1c0-1.108.892-2 2-2h28c1.108 0 2 .892 2 2v-1c0-1.108-.892-2-2-2H10z"/>
</svg>
