<svg xmlns="http://www.w3.org/2000/svg" width="48" height="48" version="1">
    <rect style="opacity:.2" width="24" height="20" x="-29" y="-34" rx="10" ry="10" transform="matrix(0 -1 -1 0 0 0)"/>
    <path style="opacity:.2" d="M11 18a2 2 0 0 0-2 2v2.5c0 6.358 5.645 11.565 13 12.377V41h-8a2 2 0 0 0-2 2 2 2 0 0 0 2 2h20a2 2 0 0 0 2-2 2 2 0 0 0-2-2h-8v-6.123c7.355-.812 13-6.019 13-12.377V20a2 2 0 0 0-2-2 2 2 0 0 0-2 2v1.834C35 26.912 30.094 31 24 31s-11-4.088-11-9.166V20a2 2 0 0 0-2-2z"/>
    <path style="fill:#c4c4c4" d="M11 17a2 2 0 0 0-2 2v2.5c0 6.358 5.645 11.565 13 12.377V40h-8a2 2 0 0 0-2 2 2 2 0 0 0 2 2h20a2 2 0 0 0 2-2 2 2 0 0 0-2-2h-8v-6.123c7.355-.812 13-6.019 13-12.377V19a2 2 0 0 0-2-2 2 2 0 0 0-2 2v1.834C35 25.912 30.094 30 24 30s-11-4.088-11-9.166V19a2 2 0 0 0-2-2z"/>
    <rect style="fill:#5d5d5d" width="24" height="20" x="-28" y="-34" rx="10" ry="10" transform="matrix(0 -1 -1 0 0 0)"/>
    <path style="fill:#fff;opacity:.1" d="M11 17a2 2 0 0 0-2 2v1a2 2 0 0 1 2-2 2 2 0 0 1 2 2v-1a2 2 0 0 0-2-2zm26 0a2 2 0 0 0-2 2v1a2 2 0 0 1 2-2 2 2 0 0 1 2 2v-1a2 2 0 0 0-2-2zm-24 3.834v1C13 26.912 17.906 31 24 31s11-4.088 11-9.166v-1C35 25.912 30.094 30 24 30s-11-4.088-11-9.166zM14 40a2 2 0 0 0-2 2 2 2 0 0 0 .064.496A2 2 0 0 1 14 41h8v-1h-8zm12 0v1h8a2 2 0 0 1 1.936 1.504A2 2 0 0 0 36 42a2 2 0 0 0-2-2h-8zM24 4c-5.54 0-10 4.46-10 10v1c0-5.54 4.46-10 10-10s10 4.46 10 10v-1c0-5.54-4.46-10-10-10z"/>
    <circle style="fill:#db3c30" cx="36" cy="37" r="10"/>
    <path style="opacity:.2" d="M45.979 37.414A10 10 0 0 1 36 47a10 10 0 0 1-9.979-9.414A10 10 0 0 0 26 38a10 10 0 0 0 10 10 10 10 0 0 0 10-10 10 10 0 0 0-.021-.586z"/>
    <g style="fill:#fff">
        <path d="m31.05 40.796 8.486-8.486 1.414 1.415-8.485 8.485z"/>
        <path d="m39.536 42.21-8.485-8.485 1.414-1.415 8.485 8.486z"/>
    </g>
</svg>
