<svg xmlns="http://www.w3.org/2000/svg" width="48" height="48">
    <path fill="#efb055" d="M8.815 24.576C8.815 32.889-1.308 39 7.803 39h32.394c9.11 0-1.012-6.111-1.012-14.424C39.185 15.303 35.135 5 24 5S8.815 15.303 8.815 24.576z"/>
    <path fill="#ce903c" d="M17 39c1.034 2.317 3.761 4 7 4s5.966-1.683 7-4H17z"/>
    <path fill="#fff" opacity=".1" d="M24 5C12.864 5 8.814 15.303 8.814 24.576c0 6.146-5.524 11.085-4.728 13.244.575-2.487 4.728-6.905 4.728-12.244C8.814 16.303 12.864 6 24 6s15.186 10.303 15.186 19.576c0 5.339 4.153 9.757 4.728 12.244.796-2.159-4.728-7.098-4.728-13.244C39.186 15.303 35.136 5 24 5z"/>
    <path opacity=".2" d="M4.086 37.82c-.32 1.386.456 2.18 3.717 2.18h32.394c3.26 0 4.038-.794 3.717-2.18-.281.762-1.341 1.18-3.717 1.18H7.803c-2.376 0-3.437-.418-3.718-1.18zM17 40c1.034 2.317 3.761 4 7 4s5.966-1.683 7-4h-.594c-1.289 1.782-3.658 3-6.406 3s-5.117-1.218-6.406-3H17z"/>
    <g transform="translate(3)">
        <circle style="fill:#db3c30" cx="34" cy="36" r="10"/>
        <path style="opacity:.2" d="M43.979 36.414A10 10 0 0 1 34 46a10 10 0 0 1-9.979-9.414A10 10 0 0 0 24 37a10 10 0 0 0 10 10 10 10 0 0 0 10-10 10 10 0 0 0-.021-.586z"/>
        <g style="fill:#fff">
            <path d="m29.05 39.796 8.486-8.486 1.414 1.415-8.485 8.485z"/>
            <path d="m37.536 41.21-8.485-8.485 1.414-1.415 8.485 8.486z"/>
        </g>
    </g>
</svg>
