<svg xmlns="http://www.w3.org/2000/svg" width="48" height="48" version="1">
    <path fill="#e4e4e4" d="M29 4v4c6.327 2.114 11 8.657 11 16s-4.673 13.886-11 16v4c8.591-2.229 15-10.286 15-20S37.591 6.229 29 4zM4 14v20h9.091l10.91 10V4L13.09 14z"/>
    <path fill="#e4e4e4" d="M34 24c0-3.9-2.011-7.26-5-9v18c2.96-1.74 5-5.1 5-9z"/>
    <path opacity=".2" d="M29 8v1c6.183 2.066 10.773 8.363 10.98 15.5.005-.167.02-.332.02-.5 0-7.343-4.673-13.886-11-16zm4.967 16.494C33.8 28.18 31.834 31.335 29 33v1c2.96-1.74 5-5.1 5-9 0-.172-.026-.336-.033-.506zm10.012.006c-.218 9.488-6.537 17.31-14.98 19.5v1c8.592-2.229 15-10.286 15-20 0-.169-.017-.332-.02-.5zM3.999 34v1h9.093L24 45v-1L13.092 34H4z"/>
    <path fill="#fff" opacity=".2" d="M24 4 13.092 14H4v1h9.092L24 5V4zm5 0v1c8.442 2.19 14.761 10.012 14.979 19.5.003-.168.021-.331.021-.5 0-9.714-6.409-17.771-15-20zm0 11v1c2.857 1.663 4.799 4.813 4.967 8.494.007-.166.033-.326.033-.494 0-3.9-2.011-7.26-5-9zm10.98 9.5C39.773 31.637 35.183 37.934 29 40v1c6.327-2.114 11-8.657 11-16 0-.168-.015-.333-.02-.5z"/>
</svg>
