<svg xmlns="http://www.w3.org/2000/svg" width="48" height="48" version="1">
    <path style="fill:#e4e4e4" d="M7 7s-3 0-3 3v24s0 3 3 3h5l4 4h16l4-4h5s3 0 3-3V10c0-3-3-3-3-3z"/>
    <path style="opacity:.4;fill:#fff" d="M10 14h28v18h-4.484l-4 4H18.485l-4-4H10z"/>
    <path style="fill:#5d5d5d" d="M10 13h28v18h-4.484l-4 4H18.485l-4-4H10z"/>
    <path style="opacity:.1;fill:#fff" d="M7 7s-3 0-3 3v1c0-3 3-3 3-3h34s3 0 3 3v-1c0-3-3-3-3-3z"/>
    <path style="opacity:.2" d="M4 34v1s0 3 3 3h5l4 4h16l4-4h5s3 0 3-3v-1c0 3-3 3-3 3h-5l-4 4H16l-4-4H7c-3 0-3-3-3-3z"/>
    <circle style="fill:#db3c30" cx="37" cy="35" r="10"/>
    <path style="opacity:.2" d="M46.979 35.414A10 10 0 0 1 37 45a10 10 0 0 1-9.979-9.414A10 10 0 0 0 27 36a10 10 0 0 0 10 10 10 10 0 0 0 10-10 10 10 0 0 0-.021-.586z"/>
    <g style="fill:#fff">
        <path d="m32.05 38.796 8.486-8.486 1.414 1.415-8.485 8.485z"/>
        <path d="m40.536 40.21-8.485-8.485 1.414-1.415 8.485 8.486z"/>
    </g>
</svg>
