<svg xmlns="http://www.w3.org/2000/svg" width="48" height="48" version="1">
    <path fill="#e4e4e4" d="M7 7s-3 0-3 3v24s0 3 3 3h5l4 4h16l4-4h5s3 0 3-3V10c0-3-3-3-3-3z"/>
    <path fill="#fff" opacity=".4" d="M10 14h28v18h-4.484l-4 4H18.485l-4-4H10z"/>
    <path fill="#5d5d5d" d="M10 13h28v18h-4.484l-4 4H18.485l-4-4H10z"/>
    <path fill="#fff" opacity=".1" d="M7 7s-3 0-3 3v1c0-3 3-3 3-3h34s3 0 3 3v-1c0-3-3-3-3-3H7z"/>
    <path opacity=".2" d="M4 34v1s0 3 3 3h5l4 4h16l4-4h5s3 0 3-3v-1c0 3-3 3-3 3h-5l-4 4H16l-4-4H7c-3 0-3-3-3-3z"/>
</svg>
