<svg xmlns="http://www.w3.org/2000/svg" width="48" height="48" version="1">
    <path fill="#e4e4e4" d="M4 14v20h9.091l10.91 10V4L13.09 14z"/>
    <path opacity=".2" d="M4 34v1h9.092L24 45v-1L13.092 34z"/>
    <path fill="#fff" opacity=".2" d="M24 4 13.092 14H4v1h9.092L24 5z"/>
    <circle fill="#db3c30" cx="28" cy="36" r="10"/>
    <path opacity=".2" d="M37.979 36.414A10 10 0 0 1 28 46a10 10 0 0 1-9.979-9.414A10 10 0 0 0 18 37a10 10 0 0 0 10 10 10 10 0 0 0 10-10 10 10 0 0 0-.021-.586z"/>
    <g fill="#fff">
        <path d="m23.05 39.796 8.486-8.486 1.414 1.415-8.485 8.485z"/>
        <path d="m31.536 41.21-8.485-8.485 1.414-1.415 8.485 8.486z"/>
    </g>
</svg>
