<svg xmlns="http://www.w3.org/2000/svg" xmlns:xlink="http://www.w3.org/1999/xlink" id="Logos" width="80" height="80" viewBox="0 0 80 80"><defs><style>.cls-1{fill:none}.cls-2{fill:#2684ff}.cls-3{fill:url(#New_Gradient_Swatch_1)}</style><linearGradient id="New_Gradient_Swatch_1" x1="71.61" x2="41.78" y1="36.15" y2="59.43" gradientUnits="userSpaceOnUse"><stop offset=".18" stop-color="#0052cc"/><stop offset="1" stop-color="#2684ff"/></linearGradient></defs><title>bitbucket-icon-gradient-blue</title><polygon points="33.81 48.88 46.36 48.88 49.39 31.2 30.47 31.2 33.81 48.88" class="cls-1"/><path d="M12,13.06a1.92,1.92,0,0,0-1.9,2.23l8.14,49.56A2.62,2.62,0,0,0,20.78,67H60a1.93,1.93,0,0,0,1.9-1.62L70,15.3a1.92,1.92,0,0,0-1.9-2.23ZM46.36,48.88H33.81L30.47,31.2H49.39Z" class="cls-2"/><path d="M67.44,31.2h-18l-3,17.68H33.81L19.1,66.4a2.61,2.61,0,0,0,1.68.63H60a1.93,1.93,0,0,0,1.9-1.62Z" class="cls-3"/></svg>