<svg id="Capa_1" enable-background="new 0 0 509.833 509.833" height="512" viewBox="0 0 509.833 509.833" width="512" xmlns="http://www.w3.org/2000/svg">
    <g>
        <path d="m294.635 262.051h-79.438c-20.142 0-36.471 16.329-36.471 36.471v29.969 49.47 29.968c0 20.142 16.328 36.471 36.471 36.471h79.438c20.143 0 36.471-16.329 36.471-36.471v-29.968-49.47-29.969c0-20.143-16.328-36.471-36.471-36.471z" fill="#eaa895" />
        <g fill="#f9fbfc">
            <path d="m326.171 406.96c1.724 0 3.122-1.398 3.122-3.122s-1.398-3.122-3.122-3.122-3.122 1.398-3.122 3.122c0 1.725 1.398 3.122 3.122 3.122z" />
            <path d="m316.486 416.645c1.724 0 3.122-1.398 3.122-3.122s-1.398-3.122-3.122-3.122-3.122 1.398-3.122 3.122c0 1.725 1.398 3.122 3.122 3.122z" />
            <path d="m306.043 427.088c1.724 0 3.122-1.398 3.122-3.122s-1.398-3.122-3.122-3.122-3.122 1.398-3.122 3.122 1.398 3.122 3.122 3.122z" />
            <path d="m316.486 436.773c1.724 0 3.122-1.398 3.122-3.122s-1.398-3.122-3.122-3.122-3.122 1.398-3.122 3.122 1.398 3.122 3.122 3.122z" />
            <path d="m285.916 420.844c-1.724 0-3.122 1.398-3.122 3.122s1.398 3.122 3.122 3.122 3.122-1.398 3.122-3.122-1.398-3.122-3.122-3.122z" />
            <path d="m299.48 433.651c0-1.724-1.398-3.122-3.122-3.122s-3.122 1.398-3.122 3.122 1.398 3.122 3.122 3.122c1.725 0 3.122-1.398 3.122-3.122z" />
            <path d="m265.788 420.844c-1.724 0-3.122 1.398-3.122 3.122s1.398 3.122 3.122 3.122 3.122-1.398 3.122-3.122-1.398-3.122-3.122-3.122z" />
            <path d="m276.231 430.529c-1.724 0-3.122 1.398-3.122 3.122s1.398 3.122 3.122 3.122 3.122-1.398 3.122-3.122-1.398-3.122-3.122-3.122z" />
            <path d="m245.66 420.844c-1.724 0-3.122 1.398-3.122 3.122s1.398 3.122 3.122 3.122 3.122-1.398 3.122-3.122-1.397-3.122-3.122-3.122z" />
            <path d="m256.103 430.529c-1.724 0-3.122 1.398-3.122 3.122s1.398 3.122 3.122 3.122 3.122-1.398 3.122-3.122-1.398-3.122-3.122-3.122z" />
            <path d="m225.533 420.844c-1.724 0-3.122 1.398-3.122 3.122s1.398 3.122 3.122 3.122 3.122-1.398 3.122-3.122-1.398-3.122-3.122-3.122z" />
            <path d="m235.975 430.529c-1.724 0-3.122 1.398-3.122 3.122s1.398 3.122 3.122 3.122 3.122-1.398 3.122-3.122-1.397-3.122-3.122-3.122z" />
            <path d="m205.405 420.844c-1.724 0-3.122 1.398-3.122 3.122s1.398 3.122 3.122 3.122 3.122-1.398 3.122-3.122-1.398-3.122-3.122-3.122z" />
            <path d="m218.97 433.651c0-1.724-1.398-3.122-3.122-3.122s-3.122 1.398-3.122 3.122 1.398 3.122 3.122 3.122 3.122-1.398 3.122-3.122z" />
            <path d="m185.277 406.96c1.724 0 3.122-1.398 3.122-3.122s-1.398-3.122-3.122-3.122-3.122 1.398-3.122 3.122c0 1.725 1.398 3.122 3.122 3.122z" />
            <path d="m195.72 410.401c-1.724 0-3.122 1.398-3.122 3.122s1.398 3.122 3.122 3.122 3.122-1.398 3.122-3.122-1.398-3.122-3.122-3.122z" />
            <path d="m185.277 427.088c1.724 0 3.122-1.398 3.122-3.122s-1.398-3.122-3.122-3.122-3.122 1.398-3.122 3.122c0 .181.024.356.053.529.26.549.531 1.091.817 1.625.569.594 1.365.968 2.252.968z" />
            <path d="m195.72 436.773c1.724 0 3.122-1.398 3.122-3.122s-1.398-3.122-3.122-3.122-3.122 1.398-3.122 3.122 1.398 3.122 3.122 3.122z" />
        </g>
        <path d="m294.636 258.026h-79.439c-22.33 0-40.497 18.167-40.497 40.496v109.408c0 22.33 18.167 40.497 40.497 40.497h79.439c22.33 0 40.496-18.167 40.496-40.497v-109.408c0-22.33-18.166-40.496-40.496-40.496zm32.445 149.903c0 17.89-14.555 32.446-32.445 32.446h-79.439c-17.891 0-32.446-14.555-32.446-32.446v-5.761c7.392 9.882 19.185 16.289 32.446 16.289h79.439c13.261 0 25.054-6.407 32.445-16.288zm0-29.968c0 17.89-14.555 32.445-32.445 32.445h-79.439c-17.891 0-32.446-14.555-32.446-32.445v-79.439c0-17.89 14.555-32.445 32.446-32.445h79.439c17.89 0 32.445 14.555 32.445 32.445z" fill="#31373d" />
        <path d="m294.635 65.433h-79.438c-20.142 0-36.471 16.329-36.471 36.471v29.969 49.47 29.969c0 20.142 16.328 36.471 36.471 36.471h79.438c20.143 0 36.471-16.329 36.471-36.471v-29.969-49.47-29.969c0-20.143-16.328-36.471-36.471-36.471z" fill="#eaa895" />
        <g fill="#f9fbfc">
            <path d="m326.171 224.805c1.724 0 3.122-1.398 3.122-3.122s-1.398-3.122-3.122-3.122-3.122 1.398-3.122 3.122 1.398 3.122 3.122 3.122z" />
            <path d="m306.043 224.805c1.724 0 3.122-1.398 3.122-3.122s-1.398-3.122-3.122-3.122-3.122 1.398-3.122 3.122 1.398 3.122 3.122 3.122z" />
            <path d="m316.486 234.49c1.724 0 3.122-1.398 3.122-3.122s-1.398-3.122-3.122-3.122-3.122 1.398-3.122 3.122 1.398 3.122 3.122 3.122z" />
            <path d="m306.043 244.932c1.724 0 3.122-1.398 3.122-3.122s-1.398-3.122-3.122-3.122-3.122 1.398-3.122 3.122c0 1.725 1.398 3.122 3.122 3.122z" />
            <path d="m285.916 218.56c-1.724 0-3.122 1.398-3.122 3.122s1.398 3.122 3.122 3.122 3.122-1.398 3.122-3.122-1.398-3.122-3.122-3.122z" />
            <path d="m296.358 228.245c-1.724 0-3.122 1.398-3.122 3.122s1.398 3.122 3.122 3.122 3.122-1.398 3.122-3.122-1.397-3.122-3.122-3.122z" />
            <path d="m285.916 238.688c-1.724 0-3.122 1.398-3.122 3.122s1.398 3.122 3.122 3.122 3.122-1.398 3.122-3.122-1.398-3.122-3.122-3.122z" />
            <path d="m265.788 218.56c-1.724 0-3.122 1.398-3.122 3.122s1.398 3.122 3.122 3.122 3.122-1.398 3.122-3.122-1.398-3.122-3.122-3.122z" />
            <path d="m276.231 228.245c-1.724 0-3.122 1.398-3.122 3.122s1.398 3.122 3.122 3.122 3.122-1.398 3.122-3.122-1.398-3.122-3.122-3.122z" />
            <path d="m265.788 238.688c-1.724 0-3.122 1.398-3.122 3.122s1.398 3.122 3.122 3.122 3.122-1.398 3.122-3.122-1.398-3.122-3.122-3.122z" />
            <path d="m245.66 218.56c-1.724 0-3.122 1.398-3.122 3.122s1.398 3.122 3.122 3.122 3.122-1.398 3.122-3.122-1.397-3.122-3.122-3.122z" />
            <path d="m256.103 228.245c-1.724 0-3.122 1.398-3.122 3.122s1.398 3.122 3.122 3.122 3.122-1.398 3.122-3.122-1.398-3.122-3.122-3.122z" />
            <path d="m245.66 238.688c-1.724 0-3.122 1.398-3.122 3.122s1.398 3.122 3.122 3.122 3.122-1.398 3.122-3.122-1.397-3.122-3.122-3.122z" />
            <path d="m225.533 218.56c-1.724 0-3.122 1.398-3.122 3.122s1.398 3.122 3.122 3.122 3.122-1.398 3.122-3.122-1.398-3.122-3.122-3.122z" />
            <path d="m235.975 228.245c-1.724 0-3.122 1.398-3.122 3.122s1.398 3.122 3.122 3.122 3.122-1.398 3.122-3.122-1.397-3.122-3.122-3.122z" />
            <path d="m225.533 238.688c-1.724 0-3.122 1.398-3.122 3.122s1.398 3.122 3.122 3.122 3.122-1.398 3.122-3.122-1.398-3.122-3.122-3.122z" />
            <path d="m205.405 218.56c-1.724 0-3.122 1.398-3.122 3.122s1.398 3.122 3.122 3.122 3.122-1.398 3.122-3.122-1.398-3.122-3.122-3.122z" />
            <path d="m215.848 228.245c-1.724 0-3.122 1.398-3.122 3.122s1.398 3.122 3.122 3.122 3.122-1.398 3.122-3.122-1.398-3.122-3.122-3.122z" />
            <path d="m205.405 238.688c-1.724 0-3.122 1.398-3.122 3.122s1.398 3.122 3.122 3.122 3.122-1.398 3.122-3.122-1.398-3.122-3.122-3.122z" />
            <path d="m185.277 224.805c1.724 0 3.122-1.398 3.122-3.122s-1.398-3.122-3.122-3.122-3.122 1.398-3.122 3.122 1.398 3.122 3.122 3.122z" />
            <path d="m195.72 234.49c1.724 0 3.122-1.398 3.122-3.122s-1.398-3.122-3.122-3.122-3.122 1.398-3.122 3.122 1.398 3.122 3.122 3.122z" />
        </g>
        <path d="m294.636 61.407h-79.439c-22.33 0-40.497 18.167-40.497 40.496v109.408c0 22.33 18.167 40.497 40.497 40.497h79.439c22.33 0 40.496-18.167 40.496-40.497v-109.408c0-22.329-18.166-40.496-40.496-40.496zm32.445 149.904c0 17.89-14.555 32.445-32.445 32.445h-79.439c-17.891 0-32.446-14.555-32.446-32.445v-5.761c7.392 9.882 19.185 16.289 32.446 16.289h79.439c13.261 0 25.054-6.407 32.445-16.288zm0-29.969c0 17.89-14.555 32.445-32.445 32.445h-79.439c-17.891 0-32.446-14.555-32.446-32.445v-79.439c0-17.89 14.555-32.445 32.446-32.445h79.439c17.89 0 32.445 14.555 32.445 32.445z" fill="#31373d" />
        <path d="m119.935 262.051h-79.439c-20.142 0-36.471 16.329-36.471 36.471v29.969 49.47 29.968c0 20.142 16.328 36.471 36.471 36.471h79.438c20.142 0 36.471-16.329 36.471-36.471v-29.968-49.47-29.969c.001-20.143-16.328-36.471-36.47-36.471z" fill="#eaa895" />
        <g fill="#f9fbfc">
            <path d="m145.022 420.844c-1.724 0-3.122 1.398-3.122 3.122s1.398 3.122 3.122 3.122 3.122-1.398 3.122-3.122-1.398-3.122-3.122-3.122z" />
            <path d="m124.894 420.844c-1.724 0-3.122 1.398-3.122 3.122s1.398 3.122 3.122 3.122 3.122-1.398 3.122-3.122-1.398-3.122-3.122-3.122z" />
            <path d="m135.337 430.529c-1.724 0-3.122 1.398-3.122 3.122s1.398 3.122 3.122 3.122 3.122-1.398 3.122-3.122-1.398-3.122-3.122-3.122z" />
            <path d="m104.766 420.844c-1.724 0-3.122 1.398-3.122 3.122s1.398 3.122 3.122 3.122 3.122-1.398 3.122-3.122-1.397-3.122-3.122-3.122z" />
            <path d="m115.209 430.529c-1.724 0-3.122 1.398-3.122 3.122s1.398 3.122 3.122 3.122 3.122-1.398 3.122-3.122-1.397-3.122-3.122-3.122z" />
            <path d="m84.639 420.844c-1.724 0-3.122 1.398-3.122 3.122s1.398 3.122 3.122 3.122 3.122-1.398 3.122-3.122-1.398-3.122-3.122-3.122z" />
            <path d="m95.081 430.529c-1.724 0-3.122 1.398-3.122 3.122s1.398 3.122 3.122 3.122 3.122-1.398 3.122-3.122-1.397-3.122-3.122-3.122z" />
            <path d="m64.511 420.844c-1.724 0-3.122 1.398-3.122 3.122s1.398 3.122 3.122 3.122 3.122-1.398 3.122-3.122-1.398-3.122-3.122-3.122z" />
            <path d="m74.954 430.529c-1.724 0-3.122 1.398-3.122 3.122s1.398 3.122 3.122 3.122 3.122-1.398 3.122-3.122-1.398-3.122-3.122-3.122z" />
            <path d="m44.383 420.844c-1.724 0-3.122 1.398-3.122 3.122s1.398 3.122 3.122 3.122 3.122-1.398 3.122-3.122-1.397-3.122-3.122-3.122z" />
            <path d="m54.826 430.529c-1.724 0-3.122 1.398-3.122 3.122s1.398 3.122 3.122 3.122 3.122-1.398 3.122-3.122-1.398-3.122-3.122-3.122z" />
            <path d="m24.256 420.844c-1.724 0-3.122 1.398-3.122 3.122s1.398 3.122 3.122 3.122 3.122-1.398 3.122-3.122-1.398-3.122-3.122-3.122z" />
            <path d="m34.698 430.529c-1.724 0-3.122 1.398-3.122 3.122s1.398 3.122 3.122 3.122 3.122-1.398 3.122-3.122-1.397-3.122-3.122-3.122z" />
            <path d="m14.571 410.401c-1.724 0-3.122 1.398-3.122 3.122s1.398 3.122 3.122 3.122 3.122-1.398 3.122-3.122-1.398-3.122-3.122-3.122z" />
        </g>
        <path d="m160.432 298.522c0-22.33-18.167-40.496-40.497-40.496h-79.439c-22.33 0-40.496 18.166-40.496 40.496v109.408c0 22.33 18.166 40.497 40.496 40.497h79.439c22.33 0 40.497-18.167 40.497-40.497zm-152.381 0c0-17.89 14.555-32.445 32.445-32.445h79.439c17.891 0 32.446 14.555 32.446 32.445v79.439c0 17.89-14.555 32.445-32.446 32.445h-79.439c-17.89 0-32.445-14.555-32.445-32.445zm144.33 109.407c0 17.89-14.555 32.446-32.446 32.446h-79.439c-17.89 0-32.445-14.555-32.445-32.446v-5.761c7.391 9.882 19.184 16.288 32.445 16.288h79.439c13.261 0 25.054-6.407 32.446-16.289z" fill="#31373d" />
        <path d="m469.336 262.051h-79.438c-20.142 0-36.471 16.329-36.471 36.471v109.408c0 20.142 16.328 36.471 36.471 36.471h79.438c20.143 0 36.471-16.329 36.471-36.471v-109.408c0-20.143-16.328-36.471-36.471-36.471z" fill="#eaa895" />
        <g fill="#f9fbfc">
            <path d="m497.635 411.407c-1.724 0-3.122 1.398-3.122 3.122s1.398 3.122 3.122 3.122 3.122-1.397 3.122-3.122-1.397-3.122-3.122-3.122z" />
            <path d="m487.193 421.85c-1.724 0-3.122 1.398-3.122 3.122s1.398 3.122 3.122 3.122 3.122-1.398 3.122-3.122-1.398-3.122-3.122-3.122z" />
            <path d="m467.065 421.85c-1.724 0-3.122 1.398-3.122 3.122s1.398 3.122 3.122 3.122 3.122-1.398 3.122-3.122-1.398-3.122-3.122-3.122z" />
            <path d="m477.508 431.535c-1.724 0-3.122 1.398-3.122 3.122s1.398 3.122 3.122 3.122 3.122-1.397 3.122-3.122-1.398-3.122-3.122-3.122z" />
            <path d="m446.937 421.85c-1.724 0-3.122 1.398-3.122 3.122s1.398 3.122 3.122 3.122 3.122-1.398 3.122-3.122-1.398-3.122-3.122-3.122z" />
            <path d="m457.38 431.535c-1.724 0-3.122 1.398-3.122 3.122s1.398 3.122 3.122 3.122 3.122-1.397 3.122-3.122-1.398-3.122-3.122-3.122z" />
            <path d="m426.81 421.85c-1.724 0-3.122 1.398-3.122 3.122s1.398 3.122 3.122 3.122 3.122-1.398 3.122-3.122-1.398-3.122-3.122-3.122z" />
            <path d="m437.252 431.535c-1.724 0-3.122 1.398-3.122 3.122s1.398 3.122 3.122 3.122 3.122-1.397 3.122-3.122-1.397-3.122-3.122-3.122z" />
            <path d="m406.682 421.85c-1.724 0-3.122 1.398-3.122 3.122s1.398 3.122 3.122 3.122 3.122-1.398 3.122-3.122-1.398-3.122-3.122-3.122z" />
            <path d="m417.125 431.535c-1.724 0-3.122 1.398-3.122 3.122s1.398 3.122 3.122 3.122 3.122-1.397 3.122-3.122-1.398-3.122-3.122-3.122z" />
            <path d="m386.554 428.094c1.724 0 3.122-1.398 3.122-3.122s-1.398-3.122-3.122-3.122-3.122 1.398-3.122 3.122c0 1.725 1.398 3.122 3.122 3.122z" />
            <path d="m396.997 437.779c1.724 0 3.122-1.397 3.122-3.122s-1.398-3.122-3.122-3.122-3.122 1.398-3.122 3.122 1.398 3.122 3.122 3.122z" />
            <path d="m366.426 421.85c-1.724 0-3.122 1.398-3.122 3.122s1.398 3.122 3.122 3.122 3.122-1.398 3.122-3.122-1.397-3.122-3.122-3.122z" />
            <path d="m376.869 431.535c-1.724 0-3.122 1.398-3.122 3.122s1.398 3.122 3.122 3.122 3.122-1.397 3.122-3.122-1.397-3.122-3.122-3.122z" />
            <path d="m356.741 417.651c1.724 0 3.122-1.397 3.122-3.122s-1.398-3.122-3.122-3.122c-1.567 0-2.852 1.158-3.076 2.663.066.587.145 1.17.239 1.747.492 1.08 1.574 1.834 2.837 1.834z" />
        </g>
        <g fill="#31373d">
            <path d="m469.336 258.026h-79.439c-22.33 0-40.496 18.167-40.496 40.496v109.408c0 22.33 18.166 40.497 40.496 40.497h79.439c22.33 0 40.497-18.167 40.497-40.497v-109.408c0-22.33-18.167-40.496-40.497-40.496zm32.446 149.903c0 17.89-14.555 32.446-32.446 32.446h-79.439c-17.89 0-32.445-14.555-32.445-32.446v-5.761c7.391 9.882 19.184 16.288 32.445 16.288h79.439c13.261 0 25.054-6.407 32.446-16.289zm0-29.968c0 17.89-14.555 32.445-32.446 32.445h-79.439c-17.89 0-32.445-14.555-32.445-32.445v-79.439c0-17.89 14.555-32.445 32.445-32.445h79.439c17.891 0 32.446 14.555 32.446 32.445z" />
            <path d="m109.615 369.287-24.161-64.022c-.014-.037-.028-.073-.042-.109-.851-2.07-2.846-3.407-5.085-3.407-.001 0-.003 0-.005 0-2.24.002-4.235 1.342-5.119 3.507l-24.383 64.019c-.791 2.078.252 4.403 2.329 5.195.472.179.956.264 1.432.264 1.623 0 3.151-.988 3.763-2.594l5.085-13.352h33.619l5.034 13.34c.785 2.08 3.105 3.132 5.187 2.345 2.082-.783 3.132-3.106 2.346-5.186zm-43.119-18.549 13.82-36.288 13.695 36.288z" />
            <path d="m408.098 373.773c-1.062 0-2.082-.42-2.836-1.169-.758-.752-1.185-1.775-1.189-2.843 0 0-.082-22.834-.082-31.59 0-7.186-.046-31.429-.046-31.429-.002-1.069.422-2.095 1.176-2.852.755-.757 1.78-1.182 2.849-1.182h17.847c17.629 0 29.472 14.279 29.472 35.532 0 20.542-11.875 35.096-28.879 35.393-5.058.089-18.165.139-18.298.139-.004.001-.009.001-.014.001zm3.905-63.013c.013 7.209.038 22.052.038 27.412 0 6.458.044 20.579.068 27.532 4.296-.022 10.918-.063 14.159-.12 12.346-.216 20.969-11.459 20.969-27.343 0-13.285-5.628-27.481-21.421-27.481z" />
            <path d="m256.461 374.734c-9.824 0-19.398-4.093-25.611-10.948-1.493-1.647-1.368-4.193.279-5.686 1.649-1.493 4.195-1.368 5.686.28 4.712 5.199 12.056 8.303 19.645 8.303 8.736 0 14.439-5.541 15.37-10.755.99-5.542-3.065-10.424-11.125-13.397-9.944-3.668-18.766-7.595-19.137-7.761-.194-.086-.38-.188-.558-.304-5.499-3.585-8.33-9.878-7.391-16.422 1.016-7.08 6.258-12.867 13.682-15.103 15.64-4.71 28.599 5.971 29.143 6.428 1.701 1.431 1.921 3.97.49 5.672-1.428 1.7-3.96 1.92-5.661.5-.151-.125-10.263-8.318-21.651-4.89-4.455 1.342-7.458 4.534-8.033 8.538-.483 3.361.85 6.467 3.572 8.368 1.659.731 9.669 4.226 18.331 7.421 14.013 5.169 17.589 14.943 16.264 22.367-1.77 9.912-11.785 17.389-23.295 17.389z" />
            <path d="m301.882 105.395c-2.093-.733-4.395.368-5.13 2.467l-19.056 54.367-18.705-54.831c-.024-.07-.063-.13-.091-.199-.053-.131-.11-.259-.176-.384-.061-.114-.126-.222-.196-.329-.072-.109-.148-.214-.231-.316s-.169-.199-.261-.291c-.09-.091-.184-.178-.284-.261-.102-.086-.208-.164-.318-.239-.103-.07-.208-.136-.319-.197-.127-.07-.258-.13-.392-.186-.066-.027-.123-.066-.191-.09-.046-.016-.094-.02-.14-.034-.141-.045-.285-.077-.431-.106-.117-.024-.234-.047-.351-.06-.135-.015-.271-.016-.409-.017-.13-.001-.259-.001-.388.011-.123.011-.244.034-.367.057-.143.027-.284.056-.423.099-.047.014-.095.017-.142.033-.068.023-.126.062-.192.088-.135.054-.266.112-.394.18-.111.059-.216.123-.32.191-.112.074-.22.152-.325.237-.099.081-.193.165-.283.254-.094.093-.184.189-.269.292-.083.1-.159.202-.232.31-.072.106-.14.214-.202.328-.068.125-.127.253-.182.384-.028.067-.068.125-.092.195l-19.607 55.014-18.693-54.398c-.722-2.102-3.009-3.22-5.115-2.499-2.103.722-3.222 3.013-2.499 5.115l22.431 65.276c.556 1.618 2.074 2.708 3.785 2.717h.023c1.701 0 3.221-1.07 3.792-2.674l19.592-54.975 18.736 54.923c.554 1.624 2.078 2.718 3.794 2.726h.017c1.709 0 3.233-1.08 3.799-2.694l22.907-65.353c.733-2.098-.372-4.395-2.47-5.131z" />
        </g>
    </g>
</svg>