<svg xmlns="http://www.w3.org/2000/svg" width="16" height="16" version="1">
    <path style="fill:#dfdfdf" d="M7.492 1.865 7.09 3.088l-1.225.404 1.225.404.402 1.223.404-1.223 1.225-.404-1.225-.404-.404-1.223zm3.055.903-.201.61-.612.204.612.201.2.612.204-.612.611-.201-.611-.203-.203-.611zm-7.035.045-.674 2.039L.8 5.523l2.037.674.674 2.04.674-2.04 2.039-.674-2.04-.671-.673-2.04zM12.109 5c.62.75.995 1.71.995 2.76a4.344 4.344 0 0 1-4.344 4.344A4.319 4.319 0 0 1 6 11.109 5.054 5.054 0 0 0 10.932 15 5.069 5.069 0 0 0 16 9.932c0-2.4-1.652-4.407-3.89-4.932z"/>
</svg>
