<svg xmlns="http://www.w3.org/2000/svg" width="16" height="16">
    <path style="opacity:.3;fill:#dfdfdf" class="ColorScheme-Text" d="m2.379 1-1.36 1.434L3.79 5H1v6h3l4 4V8.9l2 1.852V11c.055-.03.103-.07.156-.104l1.703 1.579c-.545.45-1.17.805-1.859 1.025V15a7.155 7.155 0 0 0 2.941-1.521L14.621 15 16 13.566l-1.73-1.586-1.104-1.021L11.484 9.4 10 8.027 8 6.174l-.06-.057-2.626-2.431zM8 1 6.729 2.271 8 3.447zm2 0v1.5a5.774 5.774 0 0 1 3.924 6.436l1.258 1.166A7.174 7.174 0 0 0 15.5 8c0-3.4-2.35-6.22-5.5-7zm0 4v.3l1.54 1.427A3.414 3.414 0 0 0 10 5z"/>
</svg>
