<svg xmlns="http://www.w3.org/2000/svg" xmlns:svg="http://www.w3.org/2000/svg" xmlns:xlink="http://www.w3.org/1999/xlink" id="svg2" width="16" height="16" version="1.0"><defs id="defs4"><linearGradient id="StandardGradient" x1="7.198" x2="7.198" y1="3" y2="13.008" gradientUnits="userSpaceOnUse"><stop style="stop-color:#000;stop-opacity:.86274511" id="stop3283" offset="0"/><stop style="stop-color:#000;stop-opacity:.47058824" id="stop3285" offset="1"/></linearGradient><linearGradient id="linearGradient3627" x1="7.198" x2="7.198" y1="3" y2="13.008" gradientTransform="translate(-20,0)" gradientUnits="userSpaceOnUse" xlink:href="#StandardGradient"/><clipPath id="clipPath3649" clipPathUnits="userSpaceOnUse"><path style="fill:#f0f;fill-opacity:1;stroke:none;display:inline" id="path3651" d="m -20,0 0,16 16,0 0,-16 -16,0 z m 6.03125,3 4,0 0,3 L -7,6 l 0,4 -2.96875,0 0,3 -4,0 0,-3 -3.03125,0 0,-4 3.03125,0 0,-3 z"/></clipPath><linearGradient id="linearGradient3273" x1="7.198" x2="7.198" y1="3" y2="13.008" gradientUnits="userSpaceOnUse" xlink:href="#StandardGradient"/><linearGradient id="linearGradient3277" x1="7.198" x2="7.198" y1="3" y2="13.008" gradientUnits="userSpaceOnUse" xlink:href="#StandardGradient"/></defs><metadata id="metadata7"/><g id="layer3" style="display:inline"><path style="fill:#bebebe;fill-opacity:1;stroke:none" id="Symbol" d="m 7.0372441,3 0,4.0117466 -4.0372441,0 0,1.9731062 4.0372441,0 0,4.0151472 1.9884029,0 0,-4.0151472 3.974353,0 0,-1.9731062 -3.974353,0 0,-4.0117466 z"/></g></svg>