<?xml version="1.0" encoding="UTF-8" standalone="no"?>
<svg
   xmlns:dc="http://purl.org/dc/elements/1.1/"
   xmlns:cc="http://creativecommons.org/ns#"
   xmlns:rdf="http://www.w3.org/1999/02/22-rdf-syntax-ns#"
   xmlns:svg="http://www.w3.org/2000/svg"
   xmlns="http://www.w3.org/2000/svg"
   xmlns:sodipodi="http://sodipodi.sourceforge.net/DTD/sodipodi-0.dtd"
   xmlns:inkscape="http://www.inkscape.org/namespaces/inkscape"
   viewBox="0 0 48 48"
   version="1.1"
   id="svg29"
   sodipodi:docname="awesome.svg"
   inkscape:version="1.0.2 (e86c870879, 2021-01-15, custom)">
  <metadata
     id="metadata33">
    <rdf:RDF>
      <cc:Work
         rdf:about="">
        <dc:format>image/svg+xml</dc:format>
        <dc:type
           rdf:resource="http://purl.org/dc/dcmitype/StillImage" />
        <dc:title></dc:title>
      </cc:Work>
    </rdf:RDF>
  </metadata>
  <sodipodi:namedview
     pagecolor="#ffffff"
     bordercolor="#666666"
     borderopacity="1"
     objecttolerance="10"
     gridtolerance="10"
     guidetolerance="10"
     inkscape:pageopacity="0"
     inkscape:pageshadow="2"
     inkscape:window-width="1920"
     inkscape:window-height="996"
     id="namedview31"
     showgrid="false"
     inkscape:zoom="18.1875"
     inkscape:cx="24"
     inkscape:cy="26.199313"
     inkscape:window-x="1920"
     inkscape:window-y="20"
     inkscape:window-maximized="1"
     inkscape:current-layer="svg29" />
  <defs
     id="defs7">
    <linearGradient
       id="linearGradient3764"
       x1="1"
       x2="47"
       gradientUnits="userSpaceOnUse"
       gradientTransform="matrix(0,-1,1,0,-1.5e-6,47.999998)">
      <stop
         style="stop-color:#e4e4e4;stop-opacity:1"
         id="stop2" />
      <stop
         offset="1"
         style="stop-color:#eee;stop-opacity:1"
         id="stop4" />
    </linearGradient>
    <pattern
       patternUnits="userSpaceOnUse"
       width="46.998"
       height="47"
       patternTransform="translate(1,1)"
       id="pattern61">
      <g
         id="g15"
         transform="translate(-1,-1)">
        <path
           d="m 36.31,5 c 5.859,4.062 9.688,10.831 9.688,18.5 0,12.426 -10.07,22.5 -22.5,22.5 -7.669,0 -14.438,-3.828 -18.5,-9.688 1.037,1.822 2.306,3.499 3.781,4.969 4.085,3.712 9.514,5.969 15.469,5.969 12.703,0 23,-10.298 23,-23 0,-5.954 -2.256,-11.384 -5.969,-15.469 C 39.81,7.306 38.132,6.037 36.31,5 Z m 4.969,3.781 c 3.854,4.113 6.219,9.637 6.219,15.719 0,12.703 -10.297,23 -23,23 -6.081,0 -11.606,-2.364 -15.719,-6.219 4.16,4.144 9.883,6.719 16.219,6.719 12.703,0 23,-10.298 23,-23 0,-6.335 -2.575,-12.06 -6.719,-16.219 z"
           style="opacity:0.05"
           id="path9" />
        <path
           d="m 41.28,8.781 c 3.712,4.085 5.969,9.514 5.969,15.469 0,12.703 -10.297,23 -23,23 -5.954,0 -11.384,-2.256 -15.469,-5.969 4.113,3.854 9.637,6.219 15.719,6.219 12.703,0 23,-10.298 23,-23 0,-6.081 -2.364,-11.606 -6.219,-15.719 z"
           style="opacity:0.1"
           id="path11" />
        <path
           d="M 31.25,2.375 C 39.865,5.529 46,13.792 46,23.505 c 0,12.426 -10.07,22.5 -22.5,22.5 -9.708,0 -17.971,-6.135 -21.12,-14.75 a 23,23 0 0 0 44.875,-7 23,23 0 0 0 -16,-21.875 z"
           style="opacity:0.2"
           id="path13" />
      </g>
      <g
         id="g19"
         transform="translate(-1,-1)">
        <path
           d="M 24,1 C 36.703,1 47,11.297 47,24 47,36.703 36.703,47 24,47 11.297,47 1,36.703 1,24 1,11.297 11.297,1 24,1 Z"
           style="fill:#3c3f4c;fill-opacity:1"
           id="path17" />
      </g>
      <g
         id="g23"
         transform="translate(-1,-1)">
        <path
           d="m 40.03,7.531 c 3.712,4.084 5.969,9.514 5.969,15.469 0,12.703 -10.297,23 -23,23 C 17.045,46 11.615,43.744 7.53,40.031 11.708,44.322 17.54,47 23.999,47 c 12.703,0 23,-10.298 23,-23 0,-6.462 -2.677,-12.291 -6.969,-16.469 z"
           style="opacity:0.1"
           id="path21" />
      </g>
      <path
         d="m 16.083692,4.1182205 c -0.469536,-0.012825 -0.913694,0.030469 -1.208739,0.1314992 -1.443507,0.5067525 -2.349268,1.5972332 -2.850529,3.417374 -0.433052,1.5860073 -0.421947,4.4405013 0.03172,6.9245523 0.07932,0.43138 0.160215,0.822672 0.179249,0.886816 0.0238,0.08981 -0.130074,0.144328 -0.812171,0.303091 -3.3359277,0.779373 -5.7708545,1.942016 -7.2349827,3.451051 -0.6567163,0.671927 -1.0215588,1.258861 -1.2325327,2.001352 -0.1491095,0.514768 -0.1491095,1.53469 0,2.04144 0.4092579,1.396779 1.562477,2.70696 3.3835164,3.868001 1.2642581,0.798617 1.6417906,0.888422 2.0510476,0.469868 0.1919401,-0.195644 0.2347697,-0.29026 0.2347697,-0.525995 0,-0.455436 -0.13642,-0.64146 -0.7312714,-0.989453 -3.7309091,-2.148886 -4.3876253,-4.304189 -1.8955932,-6.220549 1.2642588,-0.970207 3.0329503,-1.738354 5.4123573,-2.333307 1.042179,-0.259791 1.276949,-0.293466 1.276949,-0.15395 0,0.189229 0.767754,2.702146 1.164323,3.786211 l 0.409257,1.133779 -0.539332,1.068031 c -2.155743,4.260892 -3.538971,8.60357 -3.705529,11.780397 -0.13642,2.448771 0.296633,4.199954 1.351503,5.28402 1.151631,1.180286 2.775974,1.43366 4.863507,0.748903 0.786791,-0.259792 2.349268,-1.072841 3.259787,-1.706281 0.656716,-0.449022 0.802654,-0.582124 0.889896,-0.817859 0.08724,-0.235737 0.08724,-0.311109 0,-0.558071 -0.130072,-0.368839 -0.402911,-0.57571 -0.774098,-0.57571 -0.241113,0 -0.407672,0.07858 -1.027904,0.50996 -1.407022,0.976622 -2.7268,1.586009 -3.822913,1.77524 -1.518062,0.266204 -2.490444,-0.418553 -2.937776,-2.041445 -0.191937,-0.704001 -0.180833,-2.960334 0.03172,-4.12779 0.322014,-1.857024 0.885142,-3.784608 1.690968,-5.813223 0.477466,-1.204339 1.387986,-3.223331 1.511714,-3.354831 0.06186,-0.07057 0.142764,0.04329 0.347394,0.525995 1.042179,2.395851 2.63321,5.320904 4.189342,7.686285 3.713461,5.640031 7.77749,9.309177 10.908787,9.835173 l -0.0333,0.0064 c 1.375297,0.227717 2.538035,-0.12027 3.435863,-1.039166 0.731271,-0.76173 1.213498,-1.832968 1.487924,-3.322758 0.166558,-0.93172 0.166558,-3.542458 0,-4.810943 C 34.881001,29.563287 33.526324,25.21259 31.500658,20.874724 31.184987,20.196379 31.008914,20.0296 30.599655,20.0296 c -0.458432,-0.0064 -0.829621,0.354406 -0.829621,0.811447 0,0.158761 0.155455,0.586935 0.415605,1.153023 2.49679,5.445987 3.838775,10.715574 3.702355,14.52905 -0.08407,2.270765 -0.637682,3.64028 -1.686205,4.166277 -0.550435,0.27743 -1.248397,0.267809 -2.165261,-0.03689 -4.209953,-1.457716 -9.911012,-8.749503 -13.584817,-17.373923 l -0.364842,-0.861159 0.532987,-0.930116 c 0.601196,-1.058407 2.119258,-3.423787 2.818803,-4.393992 l 0.471124,-0.64467 h 1.24205 c 7.531614,0 14.985503,1.743167 18.938492,4.413239 0.805823,0.545242 1.778208,1.541107 2.070083,2.12323 0.210975,0.405724 0.230009,0.51317 0.230009,1.051994 0,0.5276 -0.01903,0.654288 -0.191938,0.976621 -0.483814,0.950964 -1.759174,1.938811 -3.402551,2.642812 -0.761412,0.328747 -0.966038,0.546844 -0.966038,0.995865 0,0.380064 0.242697,0.697588 0.607539,0.811447 0.236355,0.07057 0.315669,0.05772 0.737617,-0.112262 2.652246,-1.072839 4.47487,-2.739031 4.84606,-4.426067 0.104694,-0.455437 0.09834,-1.313388 -0.0063,-1.757599 -0.198286,-0.87078 -0.90735,-1.985316 -1.71952,-2.73422 -3.61987,-3.322759 -11.297423,-5.465233 -20.407378,-5.688138 l -0.650371,-0.01924 0.761411,-0.873988 c 0.409258,-0.489112 1.137356,-1.300559 1.638617,-1.820142 2.59038,-2.694127 4.996753,-4.4581381 7.098562,-5.1926103 0.669408,-0.2405474 0.804241,-0.2694128 1.499029,-0.2694128 0.645612,0 0.802651,0.019233 1.081836,0.1667798 0.37912,0.1828157 0.804239,0.6334414 1.023144,1.0584083 0.426708,0.8691764 0.57106,2.392644 0.364843,4.015535 -0.06822,0.558069 -0.12373,1.202735 -0.12373,1.425642 0,0.375252 0.01266,0.432984 0.223665,0.617403 0.172902,0.165178 0.290287,0.206872 0.513952,0.206872 0.360083,0 0.693202,-0.194042 0.793135,-0.460248 0.296632,-0.785787 0.452087,-3.571324 0.260151,-4.7451935 C 36.073927,7.0528736 35.318863,5.8357037 34.116468,5.2471649 31.990866,4.195172 28.903982,5.2247135 25.30156,8.1786336 23.418656,9.726153 20.936142,12.351325 19.226142,14.593226 l -0.166559,0.200454 -1.010455,0.05934 c -0.848655,0.04972 -2.230296,0.18923 -3.835604,0.384875 l -0.347393,0.04329 -0.152282,-0.867573 c -0.290286,-1.730337 -0.312495,-1.990128 -0.312495,-3.645094 0,-1.452905 0.01903,-1.73194 0.155454,-2.3140635 0.334703,-1.4705447 0.997765,-2.384624 1.8718,-2.5738539 1.202395,-0.2597908 2.695076,0.3544058 4.79054,1.9452245 0.669405,0.5147703 1.484749,0.07537 1.384815,-0.7360736 C 21.561083,6.7353716 21.242246,6.4306785 20.176272,5.7026227 19.2832,5.0868238 18.280678,4.5800712 17.462162,4.3331094 17.059247,4.2096284 16.562747,4.1406717 16.093207,4.1262388 Z m 1.602134,12.4811925 c 0,0.03207 -0.283944,0.482698 -0.637682,1.015108 -0.353738,0.525997 -0.854999,1.300558 -1.115148,1.738355 -0.253804,0.424965 -0.502847,0.811446 -0.552022,0.867573 -0.06822,0.07538 -0.168145,-0.12668 -0.471123,-1.114534 -0.433053,-1.363102 -0.618646,-2.097572 -0.563127,-2.161718 0.09201,-0.09622 3.339102,-0.441004 3.339102,-0.344784 z m 6.57668,5.155728 a 2.3794068,2.4054717 0 0 0 -2.379407,2.405471 2.3794068,2.4054717 0 0 0 2.379407,2.405472 2.3794068,2.4054717 0 0 0 2.379406,-2.405472 2.3794068,2.4054717 0 0 0 -2.379406,-2.405471 z"
         style="opacity:0.1;fill:#000000;fill-opacity:1;fill-rule:nonzero;stroke:none;stroke-width:1.59493"
         id="path25" />
      <path
         d="m 15.482127,3.6865732 c -0.518133,-0.012689 -1.008257,0.030141 -1.333841,0.1300878 -1.592905,0.5013139 -2.59241,1.5800906 -3.145552,3.3806958 -0.477872,1.5689847 -0.465619,4.3928402 0.03501,6.8502312 0.08753,0.426752 0.176795,0.813842 0.197802,0.8773 0.02626,0.08885 -0.143537,0.142778 -0.89623,0.299836 -3.6811886,0.771008 -6.3681241,1.921174 -7.9837864,3.414011 -0.7246848,0.664716 -1.1272876,1.245353 -1.3600969,1.979872 -0.1645421,0.509246 -0.1645421,1.518219 0,2.019534 0.4516151,1.381786 1.7241898,2.677903 3.7337025,3.826483 1.3951059,0.790047 1.8117122,0.878887 2.2633275,0.464826 0.2118039,-0.193545 0.259066,-0.287145 0.259066,-0.52035 0,-0.450549 -0.1505384,-0.634575 -0.8069558,-0.978831 C 2.3275206,23.304444 1.6028358,21.172272 4.3527873,19.276482 5.747893,18.316689 7.6996412,17.556786 10.32531,16.968217 c 1.150044,-0.257002 1.409111,-0.290318 1.409111,-0.152297 0,0.187199 0.847216,2.673144 1.284827,3.745575 l 0.451615,1.12161 -0.595151,1.056567 c -2.378858,4.215161 -3.9052467,8.51123 -4.089044,11.653961 -0.1505382,2.422488 0.327334,4.154876 1.491381,5.227308 1.270824,1.167617 3.063281,1.418273 5.366868,0.740865 0.868224,-0.257003 2.592413,-1.061327 3.597169,-1.687968 0.724685,-0.444201 0.885725,-0.575876 0.982,-0.809084 0.09627,-0.233205 0.09627,-0.307768 0,-0.552078 -0.143537,-0.36488 -0.444613,-0.56953 -0.854217,-0.56953 -0.266069,0 -0.449864,0.07773 -1.134289,0.504486 -1.552647,0.966139 -3.009018,1.568985 -4.218578,1.756184 -1.675177,0.26335 -2.7482,-0.414059 -3.241826,-2.019532 -0.211804,-0.696446 -0.199552,-2.928562 0.03501,-4.083488 0.355341,-1.837093 0.97675,-3.743988 1.865976,-5.75083 0.526884,-1.191415 1.531642,-3.188738 1.668177,-3.318826 0.06827,-0.06979 0.157541,0.04283 0.383346,0.520351 1.150044,2.370136 2.905742,5.263797 4.622929,7.60379 4.097797,5.579496 8.582441,9.209261 12.037823,9.729614 l -0.03676,0.0065 c 1.517638,0.225273 2.800714,-0.118987 3.791467,-1.02801 0.806957,-0.753557 1.339093,-1.813297 1.641919,-3.287097 0.183798,-0.92172 0.183798,-3.504438 0,-4.759308 -0.560142,-3.758268 -2.055024,-8.06227 -4.290344,-12.353579 -0.34834,-0.671063 -0.542639,-0.836053 -0.994253,-0.836053 -0.50588,-0.0065 -0.915484,0.350603 -0.915484,0.802737 0,0.157058 0.171544,0.580636 0.458617,1.140649 2.755203,5.387536 4.23608,10.600565 4.085542,14.373112 -0.09279,2.246393 -0.703679,3.60121 -1.860724,4.12156 -0.607405,0.274453 -1.377603,0.264936 -2.38936,-0.03648 -4.645678,-1.44218 -10.936785,-8.655706 -14.990819,-17.18756 l -0.402602,-0.851915 0.58815,-0.920135 c 0.663418,-1.047047 2.338596,-3.387041 3.110543,-4.346834 l 0.519882,-0.637747 h 1.3706 c 8.311121,0 16.536469,1.724455 20.898582,4.365872 0.889226,0.539387 1.962251,1.524564 2.284334,2.100441 0.232809,0.401369 0.253815,0.507659 0.253815,1.040703 0,0.521938 -0.02102,0.647266 -0.211806,0.966139 -0.533885,0.940757 -1.941244,1.918002 -3.754708,2.614447 -0.840214,0.32522 -1.06602,0.540976 -1.06602,0.985176 0,0.375986 0.267817,0.690101 0.670419,0.802737 0.260819,0.0698 0.34834,0.05711 0.813959,-0.111054 2.926746,-1.061326 4.938009,-2.709632 5.347614,-4.378564 0.115522,-0.450548 0.108528,-1.299291 -0.0071,-1.738734 -0.218779,-0.861488 -1.001228,-1.96406 -1.897457,-2.704926 -3.994519,-3.287096 -12.466681,-5.406575 -22.519495,-5.627089 l -0.717683,-0.01904 0.840213,-0.864608 c 0.451616,-0.483863 1.25507,-1.286599 1.808212,-1.800605 2.85848,-2.6652136 5.513907,-4.4102926 7.833248,-5.1368804 0.73869,-0.2379654 0.887476,-0.2665214 1.654173,-0.2665214 0.712431,0 0.885726,0.019038 1.193803,0.1649894 0.418358,0.1808538 0.887478,0.6266423 1.129039,1.0470474 0.470871,0.8598489 0.630161,2.366963 0.402603,3.972436 -0.07528,0.55208 -0.136536,1.189828 -0.136536,1.410342 0,0.371227 0.01401,0.428339 0.246814,0.610779 0.190799,0.163403 0.320331,0.20465 0.567145,0.20465 0.397351,0 0.764944,-0.191959 0.875225,-0.455308 0.327332,-0.777353 0.498877,-3.532993 0.287071,-4.6942649 C 37.541255,6.5897514 36.708043,5.3856465 35.381204,4.8034242 33.035606,3.7627221 29.629237,4.7812144 25.653971,7.7034301 23.576192,9.23434 20.836743,11.831337 18.949762,14.049174 l -0.183796,0.198305 -1.115035,0.0587 c -0.93649,0.04917 -2.461129,0.1872 -4.232582,0.380744 l -0.383347,0.04283 -0.168042,-0.858261 c -0.320332,-1.711766 -0.344838,-1.968769 -0.344838,-3.60597 0,-1.4373114 0.021,-1.7133519 0.171545,-2.2892277 0.369343,-1.4547621 1.101029,-2.3590308 2.065526,-2.5462304 1.326838,-0.2570026 2.974007,0.3506026 5.286348,1.9243469 0.738688,0.5092456 1.638418,0.074557 1.52814,-0.7281739 C 21.526419,6.2756371 21.17458,5.9742143 19.99828,5.2539722 19.012777,4.6447806 17.906496,4.1434668 17.003264,3.8991557 16.558652,3.777 16.010762,3.7087833 15.492629,3.6945054 Z m 1.767951,12.3472328 c 0,0.03173 -0.313329,0.477517 -0.703679,1.004215 -0.390351,0.520351 -0.943492,1.286598 -1.230565,1.719695 -0.280071,0.420406 -0.554893,0.802738 -0.609154,0.858264 -0.07528,0.07457 -0.185549,-0.125325 -0.519885,-1.102573 -0.47787,-1.348471 -0.682671,-2.07506 -0.621407,-2.138516 0.101522,-0.0952 3.68469,-0.436271 3.68469,-0.341085 z m 7.257351,5.100393 a 2.6256698,2.3796543 0 0 0 -2.62567,2.379654 2.6256698,2.3796543 0 0 0 2.62567,2.379654 2.6256698,2.3796543 0 0 0 2.62567,-2.379654 2.6256698,2.3796543 0 0 0 -2.62567,-2.379654 z"
         style="fill:#f4f4f7;fill-opacity:1;fill-rule:nonzero;stroke:none;stroke-width:1.66643"
         id="path27" />
    </pattern>
  </defs>
  <rect
     style="stroke:none;fill:url(#pattern61)"
     width="46.998"
     height="47"
     x="1"
     y="1"
     id="rect73" />
</svg>
